{
  "asset": {
    "generator": "Amazon Sumerian",
    "version": "2.0"
  },
  "cameras": [
    {
      "name": "Default Camera",
      "type": "perspective",
      "perspective": {
        "aspectRatio": 1,
        "yfov": 0.7853981633974483,
        "zfar": 1000,
        "znear": 1
      }
    }
  ],
  "nodes": [
    {
      "name": "Default Camera",
      "camera": 0,
      "rotation": [
        -0.12103185676981018,
        -0.4564925180192931,
        -0.06284038678558235,
        0.8792138286150282
      ],
      "scale": [
        1,
        1,
        1
      ],
      "translation": [
        -39.403731088888506,
        14.338810128243809,
        27.7168779124785
      ]
    },
    {
      "name": "Key - Directional",
      "extensions": {
        "KHR_lights_punctual": {
          "light": 0
        }
      },
      "rotation": [
        -0.15890767034542005,
        0.12769769530651853,
        -0.14879761694627242,
        0.9676264362396809
      ],
      "scale": [
        0.9999998724629501,
        0.9999998724629501,
        0.9999998724629501
      ],
      "translation": [
        5.820701599121094,
        8.485886573791504,
        21.420394897460938
      ]
    },
    {
      "name": "Default  Dynamic Lights",
      "rotation": [
        0,
        0,
        0,
        1
      ],
      "scale": [
        1,
        1,
        1
      ],
      "translation": [
        0,
        0,
        0
      ],
      "children": [
        1
      ]
    },
    {
      "name": "Box",
      "mesh": 0,
      "rotation": [
        0,
        0,
        0,
        1
      ],
      "scale": [
        5,
        5,
        5
      ],
      "translation": [
        0,
        0.8190077543258667,
        0
      ]
    },
    {
      "name": "Light",
      "extensions": {
        "KHR_lights_punctual": {
          "light": 1
        }
      },
      "rotation": [
        0,
        0,
        0,
        1
      ],
      "scale": [
        1,
        1,
        1
      ],
      "translation": [
        0,
        0,
        0
      ]
    }
  ],
  "extensions": {
    "KHR_lights_punctual": {
      "lights": [
        {
          "name": "Key - Directional",
          "color": [
            0.92477783203125,
            0.8875688601181507,
            0.856960791015625
          ],
          "intensity": 2.5,
          "type": "directional"
        },
        {
          "name": "Light",
          "color": [
            1,
            1,
            1
          ],
          "intensity": 1,
          "type": "directional"
        }
      ]
    }
  },
  "extensionsUsed": [
    "KHR_lights_punctual"
  ],
  "buffers": [
    {
      "byteLength": 804,
      "uri": "Box-textureModeUniform.bin"
    }
  ],
  "bufferViews": [
    {
      "buffer": 0,
      "byteOffset": 0,
      "byteLength": 36,
      "target": 34963
    },
    {
      "buffer": 0,
      "byteOffset": 36,
      "byteLength": 288,
      "byteStride": 12,
      "target": 34962
    },
    {
      "buffer": 0,
      "byteOffset": 324,
      "byteLength": 288,
      "byteStride": 12,
      "target": 34962
    },
    {
      "buffer": 0,
      "byteOffset": 612,
      "byteLength": 192,
      "byteStride": 8,
      "target": 34962
    }
  ],
  "accessors": [
    {
      "bufferView": 0,
      "byteOffset": 0,
      "componentType": 5121,
      "count": 36,
      "max": [
        23
      ],
      "min": [
        0
      ],
      "type": "SCALAR"
    },
    {
      "bufferView": 1,
      "byteOffset": 0,
      "componentType": 5126,
      "count": 24,
      "max": [
        0.5,
        0.5,
        0.5
      ],
      "min": [
        -0.5,
        -0.5,
        -0.5
      ],
      "type": "VEC3"
    },
    {
      "bufferView": 2,
      "byteOffset": 0,
      "componentType": 5126,
      "count": 24,
      "max": [
        1,
        1,
        1
      ],
      "min": [
        -1,
        -1,
        -1
      ],
      "type": "VEC3"
    },
    {
      "bufferView": 3,
      "byteOffset": 0,
      "componentType": 5126,
      "count": 24,
      "max": [
        1,
        1
      ],
      "min": [
        0,
        0
      ],
      "type": "VEC2"
    }
  ],
  "meshes": [
    {
      "name": "Box",
      "primitives": [
        {
          "attributes": {
            "POSITION": 1,
            "NORMAL": 2,
            "TEXCOORD_0": 3
          },
          "indices": 0,
          "mode": 4,
          "material": 0
        }
      ]
    }
  ],
  "images": [
    {
      "uri": "Tile_Teal_DIFF.jpg"
    },
    {
      "uri": "Tile_Teal_ROUGH_Roughness.jpg"
    },
    {
      "uri": "Tile_Teal_NORM.jpg"
    }
  ],
  "samplers": [
    {
      "name": "Tile_Teal_DIFF.jpg",
      "magFilter": 9729,
      "minFilter": 9987,
      "wrapS": 10497,
      "wrapT": 10497
    },
    {
      "name": "Tile_Teal_ROUGH_Roughness.jpg",
      "magFilter": 9729,
      "minFilter": 9987,
      "wrapS": 10497,
      "wrapT": 10497
    },
    {
      "name": "Tile_Teal_NORM.jpg",
      "magFilter": 9729,
      "minFilter": 9987,
      "wrapS": 10497,
      "wrapT": 10497
    }
  ],
  "textures": [
    {
      "name": "Tile_Teal_DIFF.jpg",
      "source": 0,
      "sampler": 0
    },
    {
      "name": "Tile_Teal_ROUGH_Roughness.jpg",
      "source": 1,
      "sampler": 1
    },
    {
      "name": "Tile_Teal_NORM.jpg",
      "source": 2,
      "sampler": 2
    }
  ],
  "materials": [
    {
      "name": "Tile_Teal_MAT",
      "pbrMetallicRoughness": {
        "baseColorFactor": [
          0.82625,
          0.82625,
          0.82625,
          1
        ],
        "metallicFactor": 0,
        "roughnessFactor": 1,
        "baseColorTexture": {
          "index": 0
        },
        "metallicRoughnessTexture": {
          "index": 1
        }
      },
      "normalTexture": {
        "index": 2
      }
    }
  ],
  "scenes": [
    {
      "name": "chair",
      "nodes": [
        0,
        2,
        3,
        4
      ]
    }
  ],
  "scene": 0
}